<?xml version="1.0" standalone="no"?>
<!DOCTYPE svg PUBLIC "-//W3C//DTD SVG 20010904//EN"
 "http://www.w3.org/TR/2001/REC-SVG-20010904/DTD/svg10.dtd">
<svg version="1.0" xmlns="http://www.w3.org/2000/svg"
 width="80.000000pt" height="80.000000pt" viewBox="0 0 80.000000 80.000000"
 preserveAspectRatio="xMidYMid meet">
<metadata>
Created by potrace 1.11, written by Peter Selinger 2001-2013
</metadata>
<g transform="translate(0.000000,80.000000) scale(0.100000,-0.100000)"
fill="#000000" stroke="none">
<path d="M260 779 c-29 -10 -71 -31 -93 -46 -42 -29 -107 -103 -107 -122 0 -6
-4 -11 -8 -11 -4 0 -16 -28 -26 -61 -30 -101 -11 -232 46 -312 30 -43 115
-121 134 -123 25 -2 73 -27 68 -36 -4 -7 0 -7 12 0 14 7 25 6 38 -4 14 -10 23
-11 33 -3 9 8 13 8 13 1 0 -7 10 -8 30 -2 17 5 30 6 30 3 0 -3 7 0 15 7 8 6
19 9 24 6 5 -4 12 -2 16 4 9 15 27 12 20 -2 -4 -7 0 -5 8 5 8 9 19 17 26 17 6
0 11 5 11 11 0 6 6 9 12 7 7 -3 26 8 41 24 16 15 33 25 39 22 6 -4 8 -3 5 3
-4 5 4 21 16 34 12 13 22 26 23 29 2 15 28 60 35 60 5 0 5 7 2 17 -4 10 -2 14
5 9 6 -3 14 -1 18 5 4 8 3 9 -4 5 -16 -10 -15 16 1 33 10 11 9 12 -3 6 -12 -7
-13 -6 -4 6 13 17 16 119 3 135 -5 6 -10 19 -12 30 -11 70 -112 191 -187 226
-89 41 -195 47 -280 17z"/>
</g>
</svg>
